<mxfile host="www.draw.io" modified="2020-02-07T02:31:43.019Z" agent="Mozilla/5.0 (Macintosh; Intel Mac OS X 10_15_2) AppleWebKit/537.36 (KHTML, like Gecko) Chrome/79.0.3945.130 Safari/537.36" etag="aK-ivT6fhKzXGccPkLcZ" version="12.6.5" type="github" pages="11">
  <diagram name="tiers" id="HBvvxM4-Df2GxoqubIv0">
    <mxGraphModel dx="876" dy="627" grid="1" gridSize="10" guides="1" tooltips="1" connect="1" arrows="1" fold="1" page="1" pageScale="1" pageWidth="850" pageHeight="1100" background="#000000" math="0" shadow="0">
      <root>
        <mxCell id="2o6zKfre77DcuFocVQiW-0"/>
        <mxCell id="2o6zKfre77DcuFocVQiW-1" parent="2o6zKfre77DcuFocVQiW-0"/>
        <mxCell id="2o6zKfre77DcuFocVQiW-2" value="" style="endArrow=none;html=1;strokeColor=#FFFFFF;strokeWidth=1;" edge="1" parent="2o6zKfre77DcuFocVQiW-1">
          <mxGeometry width="50" height="50" relative="1" as="geometry">
            <mxPoint x="80" y="200" as="sourcePoint"/>
            <mxPoint x="280" y="200" as="targetPoint"/>
          </mxGeometry>
        </mxCell>
        <mxCell id="2o6zKfre77DcuFocVQiW-3" value="&lt;i&gt;working tree&lt;/i&gt;" style="text;html=1;strokeColor=none;fillColor=none;align=left;verticalAlign=middle;whiteSpace=wrap;rounded=0;fontColor=#FFFFFF;" vertex="1" parent="2o6zKfre77DcuFocVQiW-1">
          <mxGeometry x="280" y="210" width="110" height="20" as="geometry"/>
        </mxCell>
        <mxCell id="2o6zKfre77DcuFocVQiW-4" value="" style="endArrow=none;html=1;strokeColor=#FFFFFF;strokeWidth=1;" edge="1" parent="2o6zKfre77DcuFocVQiW-1">
          <mxGeometry width="50" height="50" relative="1" as="geometry">
            <mxPoint x="80" y="159.57999999999998" as="sourcePoint"/>
            <mxPoint x="280" y="159.57999999999998" as="targetPoint"/>
          </mxGeometry>
        </mxCell>
        <mxCell id="2o6zKfre77DcuFocVQiW-5" value="&lt;i&gt;staging index&lt;/i&gt;" style="text;html=1;strokeColor=none;fillColor=none;align=left;verticalAlign=middle;whiteSpace=wrap;rounded=0;fontColor=#FFFFFF;" vertex="1" parent="2o6zKfre77DcuFocVQiW-1">
          <mxGeometry x="280" y="170" width="110" height="20" as="geometry"/>
        </mxCell>
        <mxCell id="2o6zKfre77DcuFocVQiW-6" value="" style="endArrow=none;html=1;strokeColor=#FFFFFF;strokeWidth=1;" edge="1" parent="2o6zKfre77DcuFocVQiW-1">
          <mxGeometry width="50" height="50" relative="1" as="geometry">
            <mxPoint x="80" y="120" as="sourcePoint"/>
            <mxPoint x="280" y="120" as="targetPoint"/>
          </mxGeometry>
        </mxCell>
        <mxCell id="2o6zKfre77DcuFocVQiW-7" value="&lt;i&gt;repository&lt;/i&gt;" style="text;html=1;strokeColor=none;fillColor=none;align=left;verticalAlign=middle;whiteSpace=wrap;rounded=0;fontColor=#FFFFFF;" vertex="1" parent="2o6zKfre77DcuFocVQiW-1">
          <mxGeometry x="280" y="130" width="110" height="20" as="geometry"/>
        </mxCell>
      </root>
    </mxGraphModel>
  </diagram>
  <diagram name="working tree" id="nFDIeJGHODLjePEfZHYO">
    <mxGraphModel dx="501" dy="358" grid="1" gridSize="10" guides="1" tooltips="1" connect="1" arrows="1" fold="1" page="1" pageScale="1" pageWidth="850" pageHeight="1100" background="#000000" math="0" shadow="0">
      <root>
        <mxCell id="7INBl3hS9Ije1-Lq2O-e-0"/>
        <mxCell id="7INBl3hS9Ije1-Lq2O-e-1" parent="7INBl3hS9Ije1-Lq2O-e-0"/>
        <mxCell id="7INBl3hS9Ije1-Lq2O-e-2" value="" style="endArrow=none;html=1;strokeColor=#FFFFFF;strokeWidth=1;" edge="1" parent="7INBl3hS9Ije1-Lq2O-e-1">
          <mxGeometry width="50" height="50" relative="1" as="geometry">
            <mxPoint x="80" y="200" as="sourcePoint"/>
            <mxPoint x="280" y="200" as="targetPoint"/>
          </mxGeometry>
        </mxCell>
        <mxCell id="7INBl3hS9Ije1-Lq2O-e-3" value="&lt;i&gt;working tree&lt;/i&gt;" style="text;html=1;strokeColor=none;fillColor=none;align=left;verticalAlign=middle;whiteSpace=wrap;rounded=0;fontColor=#FFFFFF;" vertex="1" parent="7INBl3hS9Ije1-Lq2O-e-1">
          <mxGeometry x="280" y="210" width="110" height="20" as="geometry"/>
        </mxCell>
        <mxCell id="7INBl3hS9Ije1-Lq2O-e-4" value="" style="endArrow=none;html=1;strokeColor=#FFFFFF;strokeWidth=1;" edge="1" parent="7INBl3hS9Ije1-Lq2O-e-1">
          <mxGeometry width="50" height="50" relative="1" as="geometry">
            <mxPoint x="80" y="159.57999999999998" as="sourcePoint"/>
            <mxPoint x="280" y="159.57999999999998" as="targetPoint"/>
          </mxGeometry>
        </mxCell>
        <mxCell id="7INBl3hS9Ije1-Lq2O-e-5" value="&lt;i&gt;staging index&lt;/i&gt;" style="text;html=1;strokeColor=none;fillColor=none;align=left;verticalAlign=middle;whiteSpace=wrap;rounded=0;fontColor=#FFFFFF;" vertex="1" parent="7INBl3hS9Ije1-Lq2O-e-1">
          <mxGeometry x="280" y="170" width="110" height="20" as="geometry"/>
        </mxCell>
        <mxCell id="7INBl3hS9Ije1-Lq2O-e-6" value="" style="endArrow=none;html=1;strokeColor=#FFFFFF;strokeWidth=1;" edge="1" parent="7INBl3hS9Ije1-Lq2O-e-1">
          <mxGeometry width="50" height="50" relative="1" as="geometry">
            <mxPoint x="80" y="120" as="sourcePoint"/>
            <mxPoint x="280" y="120" as="targetPoint"/>
          </mxGeometry>
        </mxCell>
        <mxCell id="7INBl3hS9Ije1-Lq2O-e-7" value="&lt;i&gt;repository&lt;/i&gt;" style="text;html=1;strokeColor=none;fillColor=none;align=left;verticalAlign=middle;whiteSpace=wrap;rounded=0;fontColor=#FFFFFF;" vertex="1" parent="7INBl3hS9Ije1-Lq2O-e-1">
          <mxGeometry x="280" y="130" width="110" height="20" as="geometry"/>
        </mxCell>
        <mxCell id="7INBl3hS9Ije1-Lq2O-e-8" value="&lt;span style=&quot;font-style: normal&quot;&gt;file2&lt;/span&gt;" style="text;html=1;strokeColor=none;fillColor=none;align=left;verticalAlign=middle;whiteSpace=wrap;rounded=0;fontColor=#FFFFFF;fontStyle=2" vertex="1" parent="7INBl3hS9Ije1-Lq2O-e-1">
          <mxGeometry x="130" y="210" width="30" height="20" as="geometry"/>
        </mxCell>
        <mxCell id="7INBl3hS9Ije1-Lq2O-e-9" value="&lt;span style=&quot;font-style: normal&quot;&gt;dir2&lt;/span&gt;" style="text;html=1;strokeColor=none;fillColor=none;align=left;verticalAlign=middle;whiteSpace=wrap;rounded=0;fontColor=#FFFFFF;fontStyle=2" vertex="1" parent="7INBl3hS9Ije1-Lq2O-e-1">
          <mxGeometry x="250" y="210" width="30" height="20" as="geometry"/>
        </mxCell>
        <mxCell id="7INBl3hS9Ije1-Lq2O-e-10" value="" style="group" vertex="1" connectable="0" parent="7INBl3hS9Ije1-Lq2O-e-1">
          <mxGeometry x="90" y="210" width="150" height="20" as="geometry"/>
        </mxCell>
        <mxCell id="7INBl3hS9Ije1-Lq2O-e-11" value="&lt;span style=&quot;font-style: normal&quot;&gt;file1&lt;/span&gt;" style="text;html=1;strokeColor=none;fillColor=none;align=left;verticalAlign=middle;whiteSpace=wrap;rounded=0;fontColor=#FFFFFF;fontStyle=2" vertex="1" parent="7INBl3hS9Ije1-Lq2O-e-10">
          <mxGeometry width="30" height="20" as="geometry"/>
        </mxCell>
        <mxCell id="7INBl3hS9Ije1-Lq2O-e-12" value="&lt;span style=&quot;font-style: normal&quot;&gt;file3&lt;/span&gt;" style="text;html=1;strokeColor=none;fillColor=none;align=left;verticalAlign=middle;whiteSpace=wrap;rounded=0;fontColor=#FFFFFF;fontStyle=2" vertex="1" parent="7INBl3hS9Ije1-Lq2O-e-10">
          <mxGeometry x="80" width="30" height="20" as="geometry"/>
        </mxCell>
        <mxCell id="7INBl3hS9Ije1-Lq2O-e-13" value="&lt;span style=&quot;font-style: normal&quot;&gt;dir1&lt;/span&gt;" style="text;html=1;strokeColor=none;fillColor=none;align=left;verticalAlign=middle;whiteSpace=wrap;rounded=0;fontColor=#FFFFFF;fontStyle=2" vertex="1" parent="7INBl3hS9Ije1-Lq2O-e-10">
          <mxGeometry x="120" width="30" height="20" as="geometry"/>
        </mxCell>
      </root>
    </mxGraphModel>
  </diagram>
  <diagram name="staging index" id="9hVPlp5GFvJvV6EQLpRJ">
    <mxGraphModel dx="876" dy="627" grid="1" gridSize="10" guides="1" tooltips="1" connect="1" arrows="1" fold="1" page="1" pageScale="1" pageWidth="850" pageHeight="1100" background="#000000" math="0" shadow="0">
      <root>
        <mxCell id="t5cRiCoU76C5Cufz5NUQ-0"/>
        <mxCell id="t5cRiCoU76C5Cufz5NUQ-1" parent="t5cRiCoU76C5Cufz5NUQ-0"/>
        <mxCell id="t5cRiCoU76C5Cufz5NUQ-2" value="" style="endArrow=none;html=1;strokeColor=#FFFFFF;strokeWidth=1;" edge="1" parent="t5cRiCoU76C5Cufz5NUQ-1">
          <mxGeometry width="50" height="50" relative="1" as="geometry">
            <mxPoint x="80" y="200" as="sourcePoint"/>
            <mxPoint x="280" y="200" as="targetPoint"/>
          </mxGeometry>
        </mxCell>
        <mxCell id="t5cRiCoU76C5Cufz5NUQ-3" value="&lt;i&gt;working tree&lt;/i&gt;" style="text;html=1;strokeColor=none;fillColor=none;align=left;verticalAlign=middle;whiteSpace=wrap;rounded=0;fontColor=#FFFFFF;" vertex="1" parent="t5cRiCoU76C5Cufz5NUQ-1">
          <mxGeometry x="280" y="210" width="110" height="20" as="geometry"/>
        </mxCell>
        <mxCell id="t5cRiCoU76C5Cufz5NUQ-4" value="" style="endArrow=none;html=1;strokeColor=#FFFFFF;strokeWidth=1;" edge="1" parent="t5cRiCoU76C5Cufz5NUQ-1">
          <mxGeometry width="50" height="50" relative="1" as="geometry">
            <mxPoint x="80" y="159.57999999999998" as="sourcePoint"/>
            <mxPoint x="280" y="159.57999999999998" as="targetPoint"/>
          </mxGeometry>
        </mxCell>
        <mxCell id="t5cRiCoU76C5Cufz5NUQ-5" value="&lt;i&gt;staging index&lt;/i&gt;" style="text;html=1;strokeColor=none;fillColor=none;align=left;verticalAlign=middle;whiteSpace=wrap;rounded=0;fontColor=#FFFFFF;" vertex="1" parent="t5cRiCoU76C5Cufz5NUQ-1">
          <mxGeometry x="280" y="170" width="110" height="20" as="geometry"/>
        </mxCell>
        <mxCell id="t5cRiCoU76C5Cufz5NUQ-6" value="" style="endArrow=none;html=1;strokeColor=#FFFFFF;strokeWidth=1;" edge="1" parent="t5cRiCoU76C5Cufz5NUQ-1">
          <mxGeometry width="50" height="50" relative="1" as="geometry">
            <mxPoint x="80" y="120" as="sourcePoint"/>
            <mxPoint x="280" y="120" as="targetPoint"/>
          </mxGeometry>
        </mxCell>
        <mxCell id="t5cRiCoU76C5Cufz5NUQ-7" value="&lt;i&gt;repository&lt;/i&gt;" style="text;html=1;strokeColor=none;fillColor=none;align=left;verticalAlign=middle;whiteSpace=wrap;rounded=0;fontColor=#FFFFFF;" vertex="1" parent="t5cRiCoU76C5Cufz5NUQ-1">
          <mxGeometry x="280" y="130" width="110" height="20" as="geometry"/>
        </mxCell>
        <mxCell id="t5cRiCoU76C5Cufz5NUQ-8" value="&lt;span style=&quot;font-style: normal&quot;&gt;file2&lt;/span&gt;" style="text;html=1;strokeColor=none;fillColor=none;align=left;verticalAlign=middle;whiteSpace=wrap;rounded=0;fontColor=#FFFFFF;fontStyle=2" vertex="1" parent="t5cRiCoU76C5Cufz5NUQ-1">
          <mxGeometry x="130" y="210" width="30" height="20" as="geometry"/>
        </mxCell>
        <mxCell id="t5cRiCoU76C5Cufz5NUQ-9" value="&lt;span style=&quot;font-style: normal&quot;&gt;dir2&lt;/span&gt;" style="text;html=1;strokeColor=none;fillColor=none;align=left;verticalAlign=middle;whiteSpace=wrap;rounded=0;fontColor=#FFFFFF;fontStyle=2" vertex="1" parent="t5cRiCoU76C5Cufz5NUQ-1">
          <mxGeometry x="250" y="210" width="30" height="20" as="geometry"/>
        </mxCell>
        <mxCell id="t5cRiCoU76C5Cufz5NUQ-10" value="" style="group" vertex="1" connectable="0" parent="t5cRiCoU76C5Cufz5NUQ-1">
          <mxGeometry x="90" y="210" width="150" height="20" as="geometry"/>
        </mxCell>
        <mxCell id="t5cRiCoU76C5Cufz5NUQ-11" value="&lt;span style=&quot;font-style: normal&quot;&gt;file1&lt;/span&gt;" style="text;html=1;strokeColor=none;fillColor=none;align=left;verticalAlign=middle;whiteSpace=wrap;rounded=0;fontColor=#FFFFFF;fontStyle=2" vertex="1" parent="t5cRiCoU76C5Cufz5NUQ-10">
          <mxGeometry width="30" height="20" as="geometry"/>
        </mxCell>
        <mxCell id="t5cRiCoU76C5Cufz5NUQ-12" value="&lt;span style=&quot;font-style: normal&quot;&gt;file3&lt;/span&gt;" style="text;html=1;strokeColor=none;fillColor=none;align=left;verticalAlign=middle;whiteSpace=wrap;rounded=0;fontColor=#FFFFFF;fontStyle=2" vertex="1" parent="t5cRiCoU76C5Cufz5NUQ-10">
          <mxGeometry x="80" width="30" height="20" as="geometry"/>
        </mxCell>
        <mxCell id="t5cRiCoU76C5Cufz5NUQ-13" value="&lt;span style=&quot;font-style: normal&quot;&gt;dir1&lt;/span&gt;" style="text;html=1;strokeColor=none;fillColor=none;align=left;verticalAlign=middle;whiteSpace=wrap;rounded=0;fontColor=#FFFFFF;fontStyle=2" vertex="1" parent="t5cRiCoU76C5Cufz5NUQ-10">
          <mxGeometry x="120" width="30" height="20" as="geometry"/>
        </mxCell>
        <mxCell id="t5cRiCoU76C5Cufz5NUQ-14" value="git add" style="text;html=1;strokeColor=none;fillColor=none;align=right;verticalAlign=middle;whiteSpace=wrap;rounded=0;fontColor=#FFFFFF;fontStyle=2" vertex="1" parent="t5cRiCoU76C5Cufz5NUQ-1">
          <mxGeometry x="10" y="190" width="60" height="20" as="geometry"/>
        </mxCell>
        <mxCell id="t5cRiCoU76C5Cufz5NUQ-16" value="" style="group" vertex="1" connectable="0" parent="t5cRiCoU76C5Cufz5NUQ-1">
          <mxGeometry x="90" y="170" width="150" height="20" as="geometry"/>
        </mxCell>
        <mxCell id="t5cRiCoU76C5Cufz5NUQ-17" value="" style="group" vertex="1" connectable="0" parent="t5cRiCoU76C5Cufz5NUQ-16">
          <mxGeometry width="150" height="20" as="geometry"/>
        </mxCell>
        <mxCell id="t5cRiCoU76C5Cufz5NUQ-18" value="&lt;span style=&quot;font-style: normal&quot;&gt;file1&lt;/span&gt;" style="text;html=1;strokeColor=none;fillColor=none;align=left;verticalAlign=middle;whiteSpace=wrap;rounded=0;fontColor=#FFFFFF;fontStyle=2" vertex="1" parent="t5cRiCoU76C5Cufz5NUQ-17">
          <mxGeometry width="30" height="20" as="geometry"/>
        </mxCell>
        <mxCell id="t5cRiCoU76C5Cufz5NUQ-19" value="&lt;span style=&quot;font-style: normal&quot;&gt;file3&lt;/span&gt;" style="text;html=1;strokeColor=none;fillColor=none;align=left;verticalAlign=middle;whiteSpace=wrap;rounded=0;fontColor=#FFFFFF;fontStyle=2" vertex="1" parent="t5cRiCoU76C5Cufz5NUQ-17">
          <mxGeometry x="80" width="30" height="20" as="geometry"/>
        </mxCell>
        <mxCell id="t5cRiCoU76C5Cufz5NUQ-20" value="&lt;span style=&quot;font-style: normal&quot;&gt;dir1&lt;/span&gt;" style="text;html=1;strokeColor=none;fillColor=none;align=left;verticalAlign=middle;whiteSpace=wrap;rounded=0;fontColor=#FFFFFF;fontStyle=2" vertex="1" parent="t5cRiCoU76C5Cufz5NUQ-17">
          <mxGeometry x="120" width="30" height="20" as="geometry"/>
        </mxCell>
        <mxCell id="t5cRiCoU76C5Cufz5NUQ-21" value="" style="endArrow=blockThin;html=1;strokeColor=#FFFFFF;strokeWidth=1;dashed=1;endFill=1;" edge="1" parent="t5cRiCoU76C5Cufz5NUQ-16" source="t5cRiCoU76C5Cufz5NUQ-11" target="t5cRiCoU76C5Cufz5NUQ-18">
          <mxGeometry width="50" height="50" relative="1" as="geometry">
            <mxPoint x="-70" y="-80" as="sourcePoint"/>
            <mxPoint x="30" y="40" as="targetPoint"/>
          </mxGeometry>
        </mxCell>
        <mxCell id="t5cRiCoU76C5Cufz5NUQ-22" value="" style="endArrow=blockThin;html=1;strokeColor=#FFFFFF;strokeWidth=1;dashed=1;endFill=1;" edge="1" parent="t5cRiCoU76C5Cufz5NUQ-16" source="t5cRiCoU76C5Cufz5NUQ-12" target="t5cRiCoU76C5Cufz5NUQ-19">
          <mxGeometry width="50" height="50" relative="1" as="geometry">
            <mxPoint x="90" y="40" as="sourcePoint"/>
            <mxPoint x="90" y="20" as="targetPoint"/>
          </mxGeometry>
        </mxCell>
        <mxCell id="t5cRiCoU76C5Cufz5NUQ-23" value="" style="endArrow=blockThin;html=1;strokeColor=#FFFFFF;strokeWidth=1;dashed=1;endFill=1;" edge="1" parent="t5cRiCoU76C5Cufz5NUQ-16" source="t5cRiCoU76C5Cufz5NUQ-13" target="t5cRiCoU76C5Cufz5NUQ-20">
          <mxGeometry width="50" height="50" relative="1" as="geometry">
            <mxPoint x="105" y="50" as="sourcePoint"/>
            <mxPoint x="105" y="30" as="targetPoint"/>
          </mxGeometry>
        </mxCell>
      </root>
    </mxGraphModel>
  </diagram>
  <diagram name="repository" id="YbWyAbgBsb1JqDpuftCm">
    <mxGraphModel dx="417" dy="299" grid="1" gridSize="10" guides="1" tooltips="1" connect="1" arrows="1" fold="1" page="1" pageScale="1" pageWidth="850" pageHeight="1100" background="#000000" math="0" shadow="0">
      <root>
        <mxCell id="LDW7jbHlANp0ak9z3sKu-0"/>
        <mxCell id="LDW7jbHlANp0ak9z3sKu-1" parent="LDW7jbHlANp0ak9z3sKu-0"/>
        <mxCell id="LDW7jbHlANp0ak9z3sKu-2" value="" style="endArrow=none;html=1;strokeColor=#FFFFFF;strokeWidth=1;" edge="1" parent="LDW7jbHlANp0ak9z3sKu-1">
          <mxGeometry width="50" height="50" relative="1" as="geometry">
            <mxPoint x="80" y="200" as="sourcePoint"/>
            <mxPoint x="280" y="200" as="targetPoint"/>
          </mxGeometry>
        </mxCell>
        <mxCell id="LDW7jbHlANp0ak9z3sKu-3" value="&lt;i&gt;working tree&lt;/i&gt;" style="text;html=1;strokeColor=none;fillColor=none;align=left;verticalAlign=middle;whiteSpace=wrap;rounded=0;fontColor=#FFFFFF;" vertex="1" parent="LDW7jbHlANp0ak9z3sKu-1">
          <mxGeometry x="280" y="210" width="110" height="20" as="geometry"/>
        </mxCell>
        <mxCell id="LDW7jbHlANp0ak9z3sKu-4" value="" style="endArrow=none;html=1;strokeColor=#FFFFFF;strokeWidth=1;" edge="1" parent="LDW7jbHlANp0ak9z3sKu-1">
          <mxGeometry width="50" height="50" relative="1" as="geometry">
            <mxPoint x="80" y="159.57999999999998" as="sourcePoint"/>
            <mxPoint x="280" y="159.57999999999998" as="targetPoint"/>
          </mxGeometry>
        </mxCell>
        <mxCell id="LDW7jbHlANp0ak9z3sKu-5" value="&lt;i&gt;staging index&lt;/i&gt;" style="text;html=1;strokeColor=none;fillColor=none;align=left;verticalAlign=middle;whiteSpace=wrap;rounded=0;fontColor=#FFFFFF;" vertex="1" parent="LDW7jbHlANp0ak9z3sKu-1">
          <mxGeometry x="280" y="170" width="110" height="20" as="geometry"/>
        </mxCell>
        <mxCell id="LDW7jbHlANp0ak9z3sKu-6" value="" style="endArrow=none;html=1;strokeColor=#FFFFFF;strokeWidth=1;" edge="1" parent="LDW7jbHlANp0ak9z3sKu-1">
          <mxGeometry width="50" height="50" relative="1" as="geometry">
            <mxPoint x="80" y="120" as="sourcePoint"/>
            <mxPoint x="280" y="120" as="targetPoint"/>
          </mxGeometry>
        </mxCell>
        <mxCell id="LDW7jbHlANp0ak9z3sKu-7" value="&lt;i&gt;repository&lt;/i&gt;" style="text;html=1;strokeColor=none;fillColor=none;align=left;verticalAlign=middle;whiteSpace=wrap;rounded=0;fontColor=#FFFFFF;" vertex="1" parent="LDW7jbHlANp0ak9z3sKu-1">
          <mxGeometry x="280" y="130" width="110" height="20" as="geometry"/>
        </mxCell>
        <mxCell id="LDW7jbHlANp0ak9z3sKu-8" value="&lt;span style=&quot;font-style: normal&quot;&gt;file2&lt;/span&gt;" style="text;html=1;strokeColor=none;fillColor=none;align=left;verticalAlign=middle;whiteSpace=wrap;rounded=0;fontColor=#FFFFFF;fontStyle=2" vertex="1" parent="LDW7jbHlANp0ak9z3sKu-1">
          <mxGeometry x="130" y="210" width="30" height="20" as="geometry"/>
        </mxCell>
        <mxCell id="LDW7jbHlANp0ak9z3sKu-9" value="&lt;span style=&quot;font-style: normal&quot;&gt;dir2&lt;/span&gt;" style="text;html=1;strokeColor=none;fillColor=none;align=left;verticalAlign=middle;whiteSpace=wrap;rounded=0;fontColor=#FFFFFF;fontStyle=2" vertex="1" parent="LDW7jbHlANp0ak9z3sKu-1">
          <mxGeometry x="250" y="210" width="30" height="20" as="geometry"/>
        </mxCell>
        <mxCell id="LDW7jbHlANp0ak9z3sKu-10" value="" style="group" vertex="1" connectable="0" parent="LDW7jbHlANp0ak9z3sKu-1">
          <mxGeometry x="90" y="210" width="150" height="20" as="geometry"/>
        </mxCell>
        <mxCell id="LDW7jbHlANp0ak9z3sKu-11" value="&lt;span style=&quot;font-style: normal&quot;&gt;file1&lt;/span&gt;" style="text;html=1;strokeColor=none;fillColor=none;align=left;verticalAlign=middle;whiteSpace=wrap;rounded=0;fontColor=#FFFFFF;fontStyle=2" vertex="1" parent="LDW7jbHlANp0ak9z3sKu-10">
          <mxGeometry width="30" height="20" as="geometry"/>
        </mxCell>
        <mxCell id="LDW7jbHlANp0ak9z3sKu-12" value="&lt;span style=&quot;font-style: normal&quot;&gt;file3&lt;/span&gt;" style="text;html=1;strokeColor=none;fillColor=none;align=left;verticalAlign=middle;whiteSpace=wrap;rounded=0;fontColor=#FFFFFF;fontStyle=2" vertex="1" parent="LDW7jbHlANp0ak9z3sKu-10">
          <mxGeometry x="80" width="30" height="20" as="geometry"/>
        </mxCell>
        <mxCell id="LDW7jbHlANp0ak9z3sKu-13" value="&lt;span style=&quot;font-style: normal&quot;&gt;dir1&lt;/span&gt;" style="text;html=1;strokeColor=none;fillColor=none;align=left;verticalAlign=middle;whiteSpace=wrap;rounded=0;fontColor=#FFFFFF;fontStyle=2" vertex="1" parent="LDW7jbHlANp0ak9z3sKu-10">
          <mxGeometry x="120" width="30" height="20" as="geometry"/>
        </mxCell>
        <mxCell id="LDW7jbHlANp0ak9z3sKu-15" value="git commit" style="text;html=1;strokeColor=none;fillColor=none;align=right;verticalAlign=middle;whiteSpace=wrap;rounded=0;fontColor=#FFFFFF;fontStyle=2" vertex="1" parent="LDW7jbHlANp0ak9z3sKu-1">
          <mxGeometry x="10" y="150" width="60" height="20" as="geometry"/>
        </mxCell>
        <mxCell id="LDW7jbHlANp0ak9z3sKu-16" value="" style="group" vertex="1" connectable="0" parent="LDW7jbHlANp0ak9z3sKu-1">
          <mxGeometry x="90" y="170" width="150" height="20" as="geometry"/>
        </mxCell>
        <mxCell id="LDW7jbHlANp0ak9z3sKu-17" value="" style="group" vertex="1" connectable="0" parent="LDW7jbHlANp0ak9z3sKu-16">
          <mxGeometry width="150" height="20" as="geometry"/>
        </mxCell>
        <mxCell id="LDW7jbHlANp0ak9z3sKu-18" value="&lt;span style=&quot;font-style: normal&quot;&gt;file1&lt;/span&gt;" style="text;html=1;strokeColor=none;fillColor=none;align=left;verticalAlign=middle;whiteSpace=wrap;rounded=0;fontColor=#FFFFFF;fontStyle=2" vertex="1" parent="LDW7jbHlANp0ak9z3sKu-17">
          <mxGeometry width="30" height="20" as="geometry"/>
        </mxCell>
        <mxCell id="LDW7jbHlANp0ak9z3sKu-19" value="&lt;span style=&quot;font-style: normal&quot;&gt;file3&lt;/span&gt;" style="text;html=1;strokeColor=none;fillColor=none;align=left;verticalAlign=middle;whiteSpace=wrap;rounded=0;fontColor=#FFFFFF;fontStyle=2" vertex="1" parent="LDW7jbHlANp0ak9z3sKu-17">
          <mxGeometry x="80" width="30" height="20" as="geometry"/>
        </mxCell>
        <mxCell id="LDW7jbHlANp0ak9z3sKu-20" value="&lt;span style=&quot;font-style: normal&quot;&gt;dir1&lt;/span&gt;" style="text;html=1;strokeColor=none;fillColor=none;align=left;verticalAlign=middle;whiteSpace=wrap;rounded=0;fontColor=#FFFFFF;fontStyle=2" vertex="1" parent="LDW7jbHlANp0ak9z3sKu-17">
          <mxGeometry x="120" width="30" height="20" as="geometry"/>
        </mxCell>
        <mxCell id="LDW7jbHlANp0ak9z3sKu-24" value="" style="group" vertex="1" connectable="0" parent="LDW7jbHlANp0ak9z3sKu-1">
          <mxGeometry x="90" y="130" width="150" height="20" as="geometry"/>
        </mxCell>
        <mxCell id="LDW7jbHlANp0ak9z3sKu-25" value="" style="group" vertex="1" connectable="0" parent="LDW7jbHlANp0ak9z3sKu-24">
          <mxGeometry width="150" height="20" as="geometry"/>
        </mxCell>
        <mxCell id="LDW7jbHlANp0ak9z3sKu-26" value="&lt;span style=&quot;font-style: normal&quot;&gt;file1&lt;/span&gt;" style="text;html=1;strokeColor=none;fillColor=none;align=left;verticalAlign=middle;whiteSpace=wrap;rounded=0;fontColor=#FFFFFF;fontStyle=2" vertex="1" parent="LDW7jbHlANp0ak9z3sKu-25">
          <mxGeometry width="30" height="20" as="geometry"/>
        </mxCell>
        <mxCell id="LDW7jbHlANp0ak9z3sKu-27" value="&lt;span style=&quot;font-style: normal&quot;&gt;file3&lt;/span&gt;" style="text;html=1;strokeColor=none;fillColor=none;align=left;verticalAlign=middle;whiteSpace=wrap;rounded=0;fontColor=#FFFFFF;fontStyle=2" vertex="1" parent="LDW7jbHlANp0ak9z3sKu-25">
          <mxGeometry x="80" width="30" height="20" as="geometry"/>
        </mxCell>
        <mxCell id="LDW7jbHlANp0ak9z3sKu-28" value="&lt;span style=&quot;font-style: normal&quot;&gt;dir1&lt;/span&gt;" style="text;html=1;strokeColor=none;fillColor=none;align=left;verticalAlign=middle;whiteSpace=wrap;rounded=0;fontColor=#FFFFFF;fontStyle=2" vertex="1" parent="LDW7jbHlANp0ak9z3sKu-25">
          <mxGeometry x="120" width="30" height="20" as="geometry"/>
        </mxCell>
        <mxCell id="LDW7jbHlANp0ak9z3sKu-29" value="" style="endArrow=blockThin;html=1;strokeColor=#FFFFFF;strokeWidth=1;dashed=1;endFill=1;exitX=0.5;exitY=0;exitDx=0;exitDy=0;" edge="1" parent="LDW7jbHlANp0ak9z3sKu-1" source="LDW7jbHlANp0ak9z3sKu-18" target="LDW7jbHlANp0ak9z3sKu-26">
          <mxGeometry width="50" height="50" relative="1" as="geometry">
            <mxPoint x="20" y="50" as="sourcePoint"/>
            <mxPoint x="120" y="170" as="targetPoint"/>
          </mxGeometry>
        </mxCell>
        <mxCell id="LDW7jbHlANp0ak9z3sKu-30" value="" style="endArrow=blockThin;html=1;strokeColor=#FFFFFF;strokeWidth=1;dashed=1;endFill=1;" edge="1" parent="LDW7jbHlANp0ak9z3sKu-1" source="LDW7jbHlANp0ak9z3sKu-19" target="LDW7jbHlANp0ak9z3sKu-27">
          <mxGeometry width="50" height="50" relative="1" as="geometry">
            <mxPoint x="180" y="170" as="sourcePoint"/>
            <mxPoint x="180" y="150" as="targetPoint"/>
          </mxGeometry>
        </mxCell>
        <mxCell id="LDW7jbHlANp0ak9z3sKu-31" value="" style="endArrow=blockThin;html=1;strokeColor=#FFFFFF;strokeWidth=1;dashed=1;endFill=1;" edge="1" parent="LDW7jbHlANp0ak9z3sKu-1" source="LDW7jbHlANp0ak9z3sKu-20" target="LDW7jbHlANp0ak9z3sKu-28">
          <mxGeometry width="50" height="50" relative="1" as="geometry">
            <mxPoint x="195" y="180" as="sourcePoint"/>
            <mxPoint x="195" y="160" as="targetPoint"/>
          </mxGeometry>
        </mxCell>
      </root>
    </mxGraphModel>
  </diagram>
  <diagram name="master branch" id="ZBXsR8D6h87mjDx8v7-N">
    <mxGraphModel dx="876" dy="627" grid="1" gridSize="10" guides="1" tooltips="1" connect="1" arrows="1" fold="1" page="1" pageScale="1" pageWidth="850" pageHeight="1100" background="#000000" math="0" shadow="0">
      <root>
        <mxCell id="lobd90aqve4chmsT_h2g-0"/>
        <mxCell id="lobd90aqve4chmsT_h2g-1" parent="lobd90aqve4chmsT_h2g-0"/>
        <mxCell id="lobd90aqve4chmsT_h2g-2" value="" style="endArrow=none;html=1;strokeColor=#FFFFFF;strokeWidth=1;" edge="1" parent="lobd90aqve4chmsT_h2g-1" source="lobd90aqve4chmsT_h2g-20">
          <mxGeometry width="50" height="50" relative="1" as="geometry">
            <mxPoint x="80" y="200" as="sourcePoint"/>
            <mxPoint x="480" y="200" as="targetPoint"/>
          </mxGeometry>
        </mxCell>
        <mxCell id="lobd90aqve4chmsT_h2g-3" value="" style="endArrow=none;html=1;strokeColor=#FFFFFF;strokeWidth=1;" edge="1" parent="lobd90aqve4chmsT_h2g-1" target="lobd90aqve4chmsT_h2g-20">
          <mxGeometry width="50" height="50" relative="1" as="geometry">
            <mxPoint x="80" y="200" as="sourcePoint"/>
            <mxPoint x="520" y="200" as="targetPoint"/>
          </mxGeometry>
        </mxCell>
        <mxCell id="lobd90aqve4chmsT_h2g-4" value="&lt;i&gt;master branch&lt;/i&gt;" style="text;html=1;strokeColor=none;fillColor=none;align=left;verticalAlign=middle;whiteSpace=wrap;rounded=0;fontColor=#FFFFFF;" vertex="1" parent="lobd90aqve4chmsT_h2g-1">
          <mxGeometry x="480" y="190" width="110" height="20" as="geometry"/>
        </mxCell>
        <mxCell id="lobd90aqve4chmsT_h2g-18" value="" style="group" vertex="1" connectable="0" parent="lobd90aqve4chmsT_h2g-1">
          <mxGeometry x="100" y="190" width="40" height="60" as="geometry"/>
        </mxCell>
        <mxCell id="lobd90aqve4chmsT_h2g-19" value="" style="group" vertex="1" connectable="0" parent="lobd90aqve4chmsT_h2g-18">
          <mxGeometry width="40" height="60" as="geometry"/>
        </mxCell>
        <mxCell id="lobd90aqve4chmsT_h2g-20" value="" style="ellipse;whiteSpace=wrap;html=1;fillColor=#FFFFFF;" vertex="1" parent="lobd90aqve4chmsT_h2g-19">
          <mxGeometry x="10" width="20" height="20" as="geometry"/>
        </mxCell>
        <mxCell id="lobd90aqve4chmsT_h2g-21" value="commit" style="text;html=1;strokeColor=none;fillColor=none;align=center;verticalAlign=middle;whiteSpace=wrap;rounded=0;fontColor=#FFFFFF;" vertex="1" parent="lobd90aqve4chmsT_h2g-19">
          <mxGeometry y="40" width="40" height="20" as="geometry"/>
        </mxCell>
        <mxCell id="lobd90aqve4chmsT_h2g-22" value="" style="endArrow=none;html=1;strokeColor=#FFFFFF;strokeWidth=1;dashed=1;" edge="1" parent="lobd90aqve4chmsT_h2g-19" source="lobd90aqve4chmsT_h2g-21" target="lobd90aqve4chmsT_h2g-20">
          <mxGeometry width="50" height="50" relative="1" as="geometry">
            <mxPoint x="20" y="90" as="sourcePoint"/>
            <mxPoint x="7" y="17" as="targetPoint"/>
          </mxGeometry>
        </mxCell>
        <mxCell id="lobd90aqve4chmsT_h2g-23" value="" style="group" vertex="1" connectable="0" parent="lobd90aqve4chmsT_h2g-1">
          <mxGeometry x="260" y="190" width="40" height="60" as="geometry"/>
        </mxCell>
        <mxCell id="lobd90aqve4chmsT_h2g-24" value="" style="ellipse;whiteSpace=wrap;html=1;fillColor=#FFFFFF;" vertex="1" parent="lobd90aqve4chmsT_h2g-23">
          <mxGeometry x="10" width="20" height="20" as="geometry"/>
        </mxCell>
        <mxCell id="lobd90aqve4chmsT_h2g-25" value="commit" style="text;html=1;strokeColor=none;fillColor=none;align=center;verticalAlign=middle;whiteSpace=wrap;rounded=0;fontColor=#FFFFFF;" vertex="1" parent="lobd90aqve4chmsT_h2g-23">
          <mxGeometry y="40" width="40" height="20" as="geometry"/>
        </mxCell>
        <mxCell id="lobd90aqve4chmsT_h2g-26" value="" style="endArrow=none;html=1;strokeColor=#FFFFFF;strokeWidth=1;dashed=1;" edge="1" parent="lobd90aqve4chmsT_h2g-23" source="lobd90aqve4chmsT_h2g-25" target="lobd90aqve4chmsT_h2g-24">
          <mxGeometry width="50" height="50" relative="1" as="geometry">
            <mxPoint x="20" y="90" as="sourcePoint"/>
            <mxPoint x="7" y="17" as="targetPoint"/>
          </mxGeometry>
        </mxCell>
        <mxCell id="lobd90aqve4chmsT_h2g-27" value="" style="group" vertex="1" connectable="0" parent="lobd90aqve4chmsT_h2g-1">
          <mxGeometry x="420" y="190" width="40" height="60" as="geometry"/>
        </mxCell>
        <mxCell id="lobd90aqve4chmsT_h2g-28" value="" style="ellipse;whiteSpace=wrap;html=1;fillColor=#FFFFFF;" vertex="1" parent="lobd90aqve4chmsT_h2g-27">
          <mxGeometry x="10" width="20" height="20" as="geometry"/>
        </mxCell>
        <mxCell id="lobd90aqve4chmsT_h2g-29" value="commit" style="text;html=1;strokeColor=none;fillColor=none;align=center;verticalAlign=middle;whiteSpace=wrap;rounded=0;fontColor=#FFFFFF;" vertex="1" parent="lobd90aqve4chmsT_h2g-27">
          <mxGeometry y="40" width="40" height="20" as="geometry"/>
        </mxCell>
        <mxCell id="lobd90aqve4chmsT_h2g-30" value="" style="endArrow=none;html=1;strokeColor=#FFFFFF;strokeWidth=1;dashed=1;" edge="1" parent="lobd90aqve4chmsT_h2g-27" source="lobd90aqve4chmsT_h2g-29" target="lobd90aqve4chmsT_h2g-28">
          <mxGeometry width="50" height="50" relative="1" as="geometry">
            <mxPoint x="20" y="90" as="sourcePoint"/>
            <mxPoint x="7" y="17" as="targetPoint"/>
          </mxGeometry>
        </mxCell>
      </root>
    </mxGraphModel>
  </diagram>
  <diagram name="another branch" id="fetlycR_FhlmI5ydPPel">
    <mxGraphModel dx="730" dy="468" grid="1" gridSize="10" guides="1" tooltips="1" connect="1" arrows="1" fold="1" page="1" pageScale="1" pageWidth="850" pageHeight="1100" background="#000000" math="0" shadow="0">
      <root>
        <mxCell id="FoyUTnOQCHMS2tTgby3s-0"/>
        <mxCell id="FoyUTnOQCHMS2tTgby3s-1" parent="FoyUTnOQCHMS2tTgby3s-0"/>
        <mxCell id="FoyUTnOQCHMS2tTgby3s-2" value="" style="endArrow=none;html=1;strokeColor=#FFFFFF;strokeWidth=1;" edge="1" parent="FoyUTnOQCHMS2tTgby3s-1" source="FoyUTnOQCHMS2tTgby3s-6">
          <mxGeometry width="50" height="50" relative="1" as="geometry">
            <mxPoint x="80" y="200" as="sourcePoint"/>
            <mxPoint x="480" y="200" as="targetPoint"/>
          </mxGeometry>
        </mxCell>
        <mxCell id="FoyUTnOQCHMS2tTgby3s-3" value="" style="endArrow=none;html=1;strokeColor=#FFFFFF;strokeWidth=1;" edge="1" parent="FoyUTnOQCHMS2tTgby3s-1" target="FoyUTnOQCHMS2tTgby3s-6">
          <mxGeometry width="50" height="50" relative="1" as="geometry">
            <mxPoint x="80" y="200" as="sourcePoint"/>
            <mxPoint x="520" y="200" as="targetPoint"/>
          </mxGeometry>
        </mxCell>
        <mxCell id="FoyUTnOQCHMS2tTgby3s-16" value="&lt;i&gt;master branch&lt;/i&gt;" style="text;html=1;strokeColor=none;fillColor=none;align=left;verticalAlign=middle;whiteSpace=wrap;rounded=0;fontColor=#FFFFFF;" vertex="1" parent="FoyUTnOQCHMS2tTgby3s-1">
          <mxGeometry x="480" y="190" width="110" height="20" as="geometry"/>
        </mxCell>
        <mxCell id="FoyUTnOQCHMS2tTgby3s-17" value="" style="endArrow=none;html=1;strokeColor=#FFFFFF;strokeWidth=1;edgeStyle=orthogonalEdgeStyle;" edge="1" parent="FoyUTnOQCHMS2tTgby3s-1">
          <mxGeometry width="50" height="50" relative="1" as="geometry">
            <mxPoint x="190" y="160" as="sourcePoint"/>
            <mxPoint x="280" y="160" as="targetPoint"/>
            <Array as="points">
              <mxPoint x="120" y="160"/>
              <mxPoint x="280" y="160"/>
            </Array>
          </mxGeometry>
        </mxCell>
        <mxCell id="FoyUTnOQCHMS2tTgby3s-25" value="" style="endArrow=none;html=1;strokeColor=#FFFFFF;strokeWidth=1;edgeStyle=orthogonalEdgeStyle;" edge="1" parent="FoyUTnOQCHMS2tTgby3s-1" source="FoyUTnOQCHMS2tTgby3s-6">
          <mxGeometry width="50" height="50" relative="1" as="geometry">
            <mxPoint x="120" y="190" as="sourcePoint"/>
            <mxPoint x="190" y="160" as="targetPoint"/>
            <Array as="points">
              <mxPoint x="120" y="160"/>
            </Array>
          </mxGeometry>
        </mxCell>
        <mxCell id="FoyUTnOQCHMS2tTgby3s-27" value="" style="endArrow=none;html=1;strokeColor=#FFFFFF;strokeWidth=1;edgeStyle=orthogonalEdgeStyle;" edge="1" parent="FoyUTnOQCHMS2tTgby3s-1">
          <mxGeometry width="50" height="50" relative="1" as="geometry">
            <mxPoint x="210" y="160" as="sourcePoint"/>
            <mxPoint x="360" y="160" as="targetPoint"/>
            <Array as="points"/>
          </mxGeometry>
        </mxCell>
        <mxCell id="FoyUTnOQCHMS2tTgby3s-28" value="&lt;i&gt;another branch&lt;/i&gt;" style="text;html=1;strokeColor=none;fillColor=none;align=left;verticalAlign=middle;whiteSpace=wrap;rounded=0;fontColor=#FFFFFF;" vertex="1" parent="FoyUTnOQCHMS2tTgby3s-1">
          <mxGeometry x="360" y="150" width="110" height="20" as="geometry"/>
        </mxCell>
        <mxCell id="FoyUTnOQCHMS2tTgby3s-32" value="" style="endArrow=none;html=1;strokeColor=#FFFFFF;strokeWidth=1;edgeStyle=orthogonalEdgeStyle;" edge="1" parent="FoyUTnOQCHMS2tTgby3s-1">
          <mxGeometry width="50" height="50" relative="1" as="geometry">
            <mxPoint x="310" y="160" as="sourcePoint"/>
            <mxPoint x="210" y="160" as="targetPoint"/>
            <Array as="points"/>
          </mxGeometry>
        </mxCell>
        <mxCell id="FoyUTnOQCHMS2tTgby3s-42" value="" style="group" vertex="1" connectable="0" parent="FoyUTnOQCHMS2tTgby3s-1">
          <mxGeometry x="180" y="110" width="40" height="60" as="geometry"/>
        </mxCell>
        <mxCell id="FoyUTnOQCHMS2tTgby3s-36" value="commit" style="text;html=1;strokeColor=none;fillColor=none;align=center;verticalAlign=middle;whiteSpace=wrap;rounded=0;fontColor=#FFFFFF;" vertex="1" parent="FoyUTnOQCHMS2tTgby3s-42">
          <mxGeometry width="40" height="20" as="geometry"/>
        </mxCell>
        <mxCell id="FoyUTnOQCHMS2tTgby3s-34" value="" style="endArrow=none;html=1;strokeColor=#FFFFFF;strokeWidth=1;dashed=1;exitX=0.5;exitY=1;exitDx=0;exitDy=0;" edge="1" parent="FoyUTnOQCHMS2tTgby3s-42" target="FoyUTnOQCHMS2tTgby3s-35" source="FoyUTnOQCHMS2tTgby3s-36">
          <mxGeometry width="50" height="50" relative="1" as="geometry">
            <mxPoint x="20" y="130" as="sourcePoint"/>
            <mxPoint x="7" y="57" as="targetPoint"/>
          </mxGeometry>
        </mxCell>
        <mxCell id="FoyUTnOQCHMS2tTgby3s-35" value="" style="ellipse;whiteSpace=wrap;html=1;fillColor=#FFFFFF;" vertex="1" parent="FoyUTnOQCHMS2tTgby3s-42">
          <mxGeometry x="10" y="40" width="20" height="20" as="geometry"/>
        </mxCell>
        <mxCell id="FoyUTnOQCHMS2tTgby3s-43" value="" style="group" vertex="1" connectable="0" parent="FoyUTnOQCHMS2tTgby3s-1">
          <mxGeometry x="300" y="110" width="40" height="60" as="geometry"/>
        </mxCell>
        <mxCell id="FoyUTnOQCHMS2tTgby3s-44" value="commit" style="text;html=1;strokeColor=none;fillColor=none;align=center;verticalAlign=middle;whiteSpace=wrap;rounded=0;fontColor=#FFFFFF;" vertex="1" parent="FoyUTnOQCHMS2tTgby3s-43">
          <mxGeometry width="40" height="20" as="geometry"/>
        </mxCell>
        <mxCell id="FoyUTnOQCHMS2tTgby3s-45" value="" style="endArrow=none;html=1;strokeColor=#FFFFFF;strokeWidth=1;dashed=1;exitX=0.5;exitY=1;exitDx=0;exitDy=0;" edge="1" parent="FoyUTnOQCHMS2tTgby3s-43" source="FoyUTnOQCHMS2tTgby3s-44" target="FoyUTnOQCHMS2tTgby3s-46">
          <mxGeometry width="50" height="50" relative="1" as="geometry">
            <mxPoint x="20" y="130" as="sourcePoint"/>
            <mxPoint x="7" y="57" as="targetPoint"/>
          </mxGeometry>
        </mxCell>
        <mxCell id="FoyUTnOQCHMS2tTgby3s-46" value="" style="ellipse;whiteSpace=wrap;html=1;fillColor=#FFFFFF;" vertex="1" parent="FoyUTnOQCHMS2tTgby3s-43">
          <mxGeometry x="10" y="40" width="20" height="20" as="geometry"/>
        </mxCell>
        <mxCell id="FoyUTnOQCHMS2tTgby3s-48" value="" style="group" vertex="1" connectable="0" parent="FoyUTnOQCHMS2tTgby3s-1">
          <mxGeometry x="100" y="190" width="40" height="60" as="geometry"/>
        </mxCell>
        <mxCell id="FoyUTnOQCHMS2tTgby3s-40" value="" style="group" vertex="1" connectable="0" parent="FoyUTnOQCHMS2tTgby3s-48">
          <mxGeometry width="40" height="60" as="geometry"/>
        </mxCell>
        <mxCell id="FoyUTnOQCHMS2tTgby3s-6" value="" style="ellipse;whiteSpace=wrap;html=1;fillColor=#FFFFFF;" vertex="1" parent="FoyUTnOQCHMS2tTgby3s-40">
          <mxGeometry x="10" width="20" height="20" as="geometry"/>
        </mxCell>
        <mxCell id="FoyUTnOQCHMS2tTgby3s-7" value="commit" style="text;html=1;strokeColor=none;fillColor=none;align=center;verticalAlign=middle;whiteSpace=wrap;rounded=0;fontColor=#FFFFFF;" vertex="1" parent="FoyUTnOQCHMS2tTgby3s-40">
          <mxGeometry y="40" width="40" height="20" as="geometry"/>
        </mxCell>
        <mxCell id="FoyUTnOQCHMS2tTgby3s-5" value="" style="endArrow=none;html=1;strokeColor=#FFFFFF;strokeWidth=1;dashed=1;" edge="1" parent="FoyUTnOQCHMS2tTgby3s-40" target="FoyUTnOQCHMS2tTgby3s-6" source="FoyUTnOQCHMS2tTgby3s-7">
          <mxGeometry width="50" height="50" relative="1" as="geometry">
            <mxPoint x="20" y="90" as="sourcePoint"/>
            <mxPoint x="7" y="17" as="targetPoint"/>
          </mxGeometry>
        </mxCell>
        <mxCell id="FoyUTnOQCHMS2tTgby3s-49" value="" style="group" vertex="1" connectable="0" parent="FoyUTnOQCHMS2tTgby3s-1">
          <mxGeometry x="260" y="190" width="40" height="60" as="geometry"/>
        </mxCell>
        <mxCell id="FoyUTnOQCHMS2tTgby3s-10" value="" style="ellipse;whiteSpace=wrap;html=1;fillColor=#FFFFFF;" vertex="1" parent="FoyUTnOQCHMS2tTgby3s-49">
          <mxGeometry x="10" width="20" height="20" as="geometry"/>
        </mxCell>
        <mxCell id="FoyUTnOQCHMS2tTgby3s-11" value="commit" style="text;html=1;strokeColor=none;fillColor=none;align=center;verticalAlign=middle;whiteSpace=wrap;rounded=0;fontColor=#FFFFFF;" vertex="1" parent="FoyUTnOQCHMS2tTgby3s-49">
          <mxGeometry y="40" width="40" height="20" as="geometry"/>
        </mxCell>
        <mxCell id="FoyUTnOQCHMS2tTgby3s-9" value="" style="endArrow=none;html=1;strokeColor=#FFFFFF;strokeWidth=1;dashed=1;" edge="1" parent="FoyUTnOQCHMS2tTgby3s-49" target="FoyUTnOQCHMS2tTgby3s-10" source="FoyUTnOQCHMS2tTgby3s-11">
          <mxGeometry width="50" height="50" relative="1" as="geometry">
            <mxPoint x="20" y="90" as="sourcePoint"/>
            <mxPoint x="7" y="17" as="targetPoint"/>
          </mxGeometry>
        </mxCell>
        <mxCell id="FoyUTnOQCHMS2tTgby3s-50" value="" style="group" vertex="1" connectable="0" parent="FoyUTnOQCHMS2tTgby3s-1">
          <mxGeometry x="420" y="190" width="40" height="60" as="geometry"/>
        </mxCell>
        <mxCell id="FoyUTnOQCHMS2tTgby3s-14" value="" style="ellipse;whiteSpace=wrap;html=1;fillColor=#FFFFFF;" vertex="1" parent="FoyUTnOQCHMS2tTgby3s-50">
          <mxGeometry x="10" width="20" height="20" as="geometry"/>
        </mxCell>
        <mxCell id="FoyUTnOQCHMS2tTgby3s-15" value="commit" style="text;html=1;strokeColor=none;fillColor=none;align=center;verticalAlign=middle;whiteSpace=wrap;rounded=0;fontColor=#FFFFFF;" vertex="1" parent="FoyUTnOQCHMS2tTgby3s-50">
          <mxGeometry y="40" width="40" height="20" as="geometry"/>
        </mxCell>
        <mxCell id="FoyUTnOQCHMS2tTgby3s-13" value="" style="endArrow=none;html=1;strokeColor=#FFFFFF;strokeWidth=1;dashed=1;" edge="1" parent="FoyUTnOQCHMS2tTgby3s-50" target="FoyUTnOQCHMS2tTgby3s-14" source="FoyUTnOQCHMS2tTgby3s-15">
          <mxGeometry width="50" height="50" relative="1" as="geometry">
            <mxPoint x="20" y="90" as="sourcePoint"/>
            <mxPoint x="7" y="17" as="targetPoint"/>
          </mxGeometry>
        </mxCell>
      </root>
    </mxGraphModel>
  </diagram>
  <diagram name="merge" id="l_yiXmdQYgJC4eiWQrf6">
    <mxGraphModel dx="501" dy="358" grid="1" gridSize="10" guides="1" tooltips="1" connect="1" arrows="1" fold="1" page="1" pageScale="1" pageWidth="850" pageHeight="1100" background="#000000" math="0" shadow="0">
      <root>
        <mxCell id="_RQBHz30oYja-D0K-J3v-0"/>
        <mxCell id="_RQBHz30oYja-D0K-J3v-1" parent="_RQBHz30oYja-D0K-J3v-0"/>
        <mxCell id="_RQBHz30oYja-D0K-J3v-2" value="" style="endArrow=none;html=1;strokeColor=#FFFFFF;strokeWidth=1;" edge="1" parent="_RQBHz30oYja-D0K-J3v-1" source="_RQBHz30oYja-D0K-J3v-20">
          <mxGeometry width="50" height="50" relative="1" as="geometry">
            <mxPoint x="80" y="200" as="sourcePoint"/>
            <mxPoint x="480" y="200" as="targetPoint"/>
          </mxGeometry>
        </mxCell>
        <mxCell id="_RQBHz30oYja-D0K-J3v-3" value="" style="endArrow=none;html=1;strokeColor=#FFFFFF;strokeWidth=1;" edge="1" parent="_RQBHz30oYja-D0K-J3v-1" target="_RQBHz30oYja-D0K-J3v-20">
          <mxGeometry width="50" height="50" relative="1" as="geometry">
            <mxPoint x="80" y="200" as="sourcePoint"/>
            <mxPoint x="520" y="200" as="targetPoint"/>
          </mxGeometry>
        </mxCell>
        <mxCell id="_RQBHz30oYja-D0K-J3v-4" value="&lt;i&gt;master branch&lt;/i&gt;" style="text;html=1;strokeColor=none;fillColor=none;align=left;verticalAlign=middle;whiteSpace=wrap;rounded=0;fontColor=#FFFFFF;" vertex="1" parent="_RQBHz30oYja-D0K-J3v-1">
          <mxGeometry x="480" y="190" width="110" height="20" as="geometry"/>
        </mxCell>
        <mxCell id="_RQBHz30oYja-D0K-J3v-5" value="" style="endArrow=none;html=1;strokeColor=#FFFFFF;strokeWidth=1;edgeStyle=orthogonalEdgeStyle;" edge="1" parent="_RQBHz30oYja-D0K-J3v-1">
          <mxGeometry width="50" height="50" relative="1" as="geometry">
            <mxPoint x="190" y="160" as="sourcePoint"/>
            <mxPoint x="280" y="160" as="targetPoint"/>
            <Array as="points">
              <mxPoint x="120" y="160"/>
              <mxPoint x="280" y="160"/>
            </Array>
          </mxGeometry>
        </mxCell>
        <mxCell id="_RQBHz30oYja-D0K-J3v-6" value="" style="endArrow=none;html=1;strokeColor=#FFFFFF;strokeWidth=1;edgeStyle=orthogonalEdgeStyle;" edge="1" parent="_RQBHz30oYja-D0K-J3v-1" source="_RQBHz30oYja-D0K-J3v-20">
          <mxGeometry width="50" height="50" relative="1" as="geometry">
            <mxPoint x="120" y="190" as="sourcePoint"/>
            <mxPoint x="190" y="160" as="targetPoint"/>
            <Array as="points">
              <mxPoint x="120" y="160"/>
            </Array>
          </mxGeometry>
        </mxCell>
        <mxCell id="_RQBHz30oYja-D0K-J3v-7" value="" style="endArrow=none;html=1;strokeColor=#FFFFFF;strokeWidth=1;edgeStyle=orthogonalEdgeStyle;entryX=0;entryY=0.5;entryDx=0;entryDy=0;" edge="1" parent="_RQBHz30oYja-D0K-J3v-1" target="_RQBHz30oYja-D0K-J3v-28">
          <mxGeometry width="50" height="50" relative="1" as="geometry">
            <mxPoint x="210" y="160" as="sourcePoint"/>
            <mxPoint x="360" y="160" as="targetPoint"/>
            <Array as="points">
              <mxPoint x="360" y="160"/>
              <mxPoint x="360" y="200"/>
            </Array>
          </mxGeometry>
        </mxCell>
        <mxCell id="_RQBHz30oYja-D0K-J3v-8" value="&lt;i&gt;another branch&lt;/i&gt;" style="text;html=1;strokeColor=none;fillColor=none;align=left;verticalAlign=middle;whiteSpace=wrap;rounded=0;fontColor=#FFFFFF;" vertex="1" parent="_RQBHz30oYja-D0K-J3v-1">
          <mxGeometry x="360" y="150" width="110" height="20" as="geometry"/>
        </mxCell>
        <mxCell id="_RQBHz30oYja-D0K-J3v-9" value="" style="endArrow=none;html=1;strokeColor=#FFFFFF;strokeWidth=1;edgeStyle=orthogonalEdgeStyle;" edge="1" parent="_RQBHz30oYja-D0K-J3v-1">
          <mxGeometry width="50" height="50" relative="1" as="geometry">
            <mxPoint x="310" y="160" as="sourcePoint"/>
            <mxPoint x="210" y="160" as="targetPoint"/>
            <Array as="points"/>
          </mxGeometry>
        </mxCell>
        <mxCell id="_RQBHz30oYja-D0K-J3v-10" value="" style="group" vertex="1" connectable="0" parent="_RQBHz30oYja-D0K-J3v-1">
          <mxGeometry x="180" y="110" width="40" height="60" as="geometry"/>
        </mxCell>
        <mxCell id="_RQBHz30oYja-D0K-J3v-11" value="commit" style="text;html=1;strokeColor=none;fillColor=none;align=center;verticalAlign=middle;whiteSpace=wrap;rounded=0;fontColor=#FFFFFF;" vertex="1" parent="_RQBHz30oYja-D0K-J3v-10">
          <mxGeometry width="40" height="20" as="geometry"/>
        </mxCell>
        <mxCell id="_RQBHz30oYja-D0K-J3v-12" value="" style="endArrow=none;html=1;strokeColor=#FFFFFF;strokeWidth=1;dashed=1;exitX=0.5;exitY=1;exitDx=0;exitDy=0;" edge="1" parent="_RQBHz30oYja-D0K-J3v-10" source="_RQBHz30oYja-D0K-J3v-11" target="_RQBHz30oYja-D0K-J3v-13">
          <mxGeometry width="50" height="50" relative="1" as="geometry">
            <mxPoint x="20" y="130" as="sourcePoint"/>
            <mxPoint x="7" y="57" as="targetPoint"/>
          </mxGeometry>
        </mxCell>
        <mxCell id="_RQBHz30oYja-D0K-J3v-13" value="" style="ellipse;whiteSpace=wrap;html=1;fillColor=#FFFFFF;" vertex="1" parent="_RQBHz30oYja-D0K-J3v-10">
          <mxGeometry x="10" y="40" width="20" height="20" as="geometry"/>
        </mxCell>
        <mxCell id="_RQBHz30oYja-D0K-J3v-14" value="" style="group" vertex="1" connectable="0" parent="_RQBHz30oYja-D0K-J3v-1">
          <mxGeometry x="300" y="110" width="40" height="60" as="geometry"/>
        </mxCell>
        <mxCell id="_RQBHz30oYja-D0K-J3v-15" value="commit" style="text;html=1;strokeColor=none;fillColor=none;align=center;verticalAlign=middle;whiteSpace=wrap;rounded=0;fontColor=#FFFFFF;" vertex="1" parent="_RQBHz30oYja-D0K-J3v-14">
          <mxGeometry width="40" height="20" as="geometry"/>
        </mxCell>
        <mxCell id="_RQBHz30oYja-D0K-J3v-16" value="" style="endArrow=none;html=1;strokeColor=#FFFFFF;strokeWidth=1;dashed=1;exitX=0.5;exitY=1;exitDx=0;exitDy=0;" edge="1" parent="_RQBHz30oYja-D0K-J3v-14" source="_RQBHz30oYja-D0K-J3v-15" target="_RQBHz30oYja-D0K-J3v-17">
          <mxGeometry width="50" height="50" relative="1" as="geometry">
            <mxPoint x="20" y="130" as="sourcePoint"/>
            <mxPoint x="7" y="57" as="targetPoint"/>
          </mxGeometry>
        </mxCell>
        <mxCell id="_RQBHz30oYja-D0K-J3v-17" value="" style="ellipse;whiteSpace=wrap;html=1;fillColor=#FFFFFF;" vertex="1" parent="_RQBHz30oYja-D0K-J3v-14">
          <mxGeometry x="10" y="40" width="20" height="20" as="geometry"/>
        </mxCell>
        <mxCell id="_RQBHz30oYja-D0K-J3v-18" value="" style="group" vertex="1" connectable="0" parent="_RQBHz30oYja-D0K-J3v-1">
          <mxGeometry x="100" y="190" width="40" height="60" as="geometry"/>
        </mxCell>
        <mxCell id="_RQBHz30oYja-D0K-J3v-19" value="" style="group" vertex="1" connectable="0" parent="_RQBHz30oYja-D0K-J3v-18">
          <mxGeometry width="40" height="60" as="geometry"/>
        </mxCell>
        <mxCell id="_RQBHz30oYja-D0K-J3v-20" value="" style="ellipse;whiteSpace=wrap;html=1;fillColor=#FFFFFF;" vertex="1" parent="_RQBHz30oYja-D0K-J3v-19">
          <mxGeometry x="10" width="20" height="20" as="geometry"/>
        </mxCell>
        <mxCell id="_RQBHz30oYja-D0K-J3v-21" value="commit" style="text;html=1;strokeColor=none;fillColor=none;align=center;verticalAlign=middle;whiteSpace=wrap;rounded=0;fontColor=#FFFFFF;" vertex="1" parent="_RQBHz30oYja-D0K-J3v-19">
          <mxGeometry y="40" width="40" height="20" as="geometry"/>
        </mxCell>
        <mxCell id="_RQBHz30oYja-D0K-J3v-22" value="" style="endArrow=none;html=1;strokeColor=#FFFFFF;strokeWidth=1;dashed=1;" edge="1" parent="_RQBHz30oYja-D0K-J3v-19" source="_RQBHz30oYja-D0K-J3v-21" target="_RQBHz30oYja-D0K-J3v-20">
          <mxGeometry width="50" height="50" relative="1" as="geometry">
            <mxPoint x="20" y="90" as="sourcePoint"/>
            <mxPoint x="7" y="17" as="targetPoint"/>
          </mxGeometry>
        </mxCell>
        <mxCell id="_RQBHz30oYja-D0K-J3v-23" value="" style="group" vertex="1" connectable="0" parent="_RQBHz30oYja-D0K-J3v-1">
          <mxGeometry x="260" y="190" width="40" height="60" as="geometry"/>
        </mxCell>
        <mxCell id="_RQBHz30oYja-D0K-J3v-24" value="" style="ellipse;whiteSpace=wrap;html=1;fillColor=#FFFFFF;" vertex="1" parent="_RQBHz30oYja-D0K-J3v-23">
          <mxGeometry x="10" width="20" height="20" as="geometry"/>
        </mxCell>
        <mxCell id="_RQBHz30oYja-D0K-J3v-25" value="commit" style="text;html=1;strokeColor=none;fillColor=none;align=center;verticalAlign=middle;whiteSpace=wrap;rounded=0;fontColor=#FFFFFF;" vertex="1" parent="_RQBHz30oYja-D0K-J3v-23">
          <mxGeometry y="40" width="40" height="20" as="geometry"/>
        </mxCell>
        <mxCell id="_RQBHz30oYja-D0K-J3v-26" value="" style="endArrow=none;html=1;strokeColor=#FFFFFF;strokeWidth=1;dashed=1;" edge="1" parent="_RQBHz30oYja-D0K-J3v-23" source="_RQBHz30oYja-D0K-J3v-25" target="_RQBHz30oYja-D0K-J3v-24">
          <mxGeometry width="50" height="50" relative="1" as="geometry">
            <mxPoint x="20" y="90" as="sourcePoint"/>
            <mxPoint x="7" y="17" as="targetPoint"/>
          </mxGeometry>
        </mxCell>
        <mxCell id="_RQBHz30oYja-D0K-J3v-27" value="" style="group" vertex="1" connectable="0" parent="_RQBHz30oYja-D0K-J3v-1">
          <mxGeometry x="420" y="190" width="40" height="60" as="geometry"/>
        </mxCell>
        <mxCell id="_RQBHz30oYja-D0K-J3v-28" value="" style="ellipse;whiteSpace=wrap;html=1;fillColor=#FFFFFF;" vertex="1" parent="_RQBHz30oYja-D0K-J3v-27">
          <mxGeometry x="10" width="20" height="20" as="geometry"/>
        </mxCell>
        <mxCell id="_RQBHz30oYja-D0K-J3v-29" value="commit" style="text;html=1;strokeColor=none;fillColor=none;align=center;verticalAlign=middle;whiteSpace=wrap;rounded=0;fontColor=#FFFFFF;" vertex="1" parent="_RQBHz30oYja-D0K-J3v-27">
          <mxGeometry y="40" width="40" height="20" as="geometry"/>
        </mxCell>
        <mxCell id="_RQBHz30oYja-D0K-J3v-30" value="" style="endArrow=none;html=1;strokeColor=#FFFFFF;strokeWidth=1;dashed=1;" edge="1" parent="_RQBHz30oYja-D0K-J3v-27" source="_RQBHz30oYja-D0K-J3v-29" target="_RQBHz30oYja-D0K-J3v-28">
          <mxGeometry width="50" height="50" relative="1" as="geometry">
            <mxPoint x="20" y="90" as="sourcePoint"/>
            <mxPoint x="7" y="17" as="targetPoint"/>
          </mxGeometry>
        </mxCell>
        <mxCell id="H_-2wEUpXMB6IhW8cx-I-0" value="" style="group" vertex="1" connectable="0" parent="_RQBHz30oYja-D0K-J3v-1">
          <mxGeometry x="340" y="190" width="40" height="60" as="geometry"/>
        </mxCell>
        <mxCell id="H_-2wEUpXMB6IhW8cx-I-1" value="" style="ellipse;whiteSpace=wrap;html=1;fillColor=#B9E0A5;" vertex="1" parent="H_-2wEUpXMB6IhW8cx-I-0">
          <mxGeometry x="10" width="20" height="20" as="geometry"/>
        </mxCell>
        <mxCell id="H_-2wEUpXMB6IhW8cx-I-2" value="merge&lt;br&gt;commit" style="text;html=1;strokeColor=none;fillColor=none;align=center;verticalAlign=middle;whiteSpace=wrap;rounded=0;fontColor=#FFFFFF;" vertex="1" parent="H_-2wEUpXMB6IhW8cx-I-0">
          <mxGeometry y="40" width="40" height="20" as="geometry"/>
        </mxCell>
        <mxCell id="H_-2wEUpXMB6IhW8cx-I-3" value="" style="endArrow=none;html=1;strokeColor=#FFFFFF;strokeWidth=1;dashed=1;" edge="1" parent="H_-2wEUpXMB6IhW8cx-I-0" source="H_-2wEUpXMB6IhW8cx-I-2" target="H_-2wEUpXMB6IhW8cx-I-1">
          <mxGeometry width="50" height="50" relative="1" as="geometry">
            <mxPoint x="20" y="90" as="sourcePoint"/>
            <mxPoint x="7" y="17" as="targetPoint"/>
          </mxGeometry>
        </mxCell>
      </root>
    </mxGraphModel>
  </diagram>
  <diagram name="clone" id="ZK3OuAixIRyWlgn5ipoG">
    <mxGraphModel dx="730" dy="468" grid="1" gridSize="10" guides="1" tooltips="1" connect="1" arrows="1" fold="1" page="1" pageScale="1" pageWidth="850" pageHeight="1100" background="#000000" math="0" shadow="0">
      <root>
        <mxCell id="WjEBFG3TJ9aYHnauA2-8-0"/>
        <mxCell id="WjEBFG3TJ9aYHnauA2-8-1" parent="WjEBFG3TJ9aYHnauA2-8-0"/>
        <mxCell id="WjEBFG3TJ9aYHnauA2-8-5" value="" style="endArrow=blockThin;html=1;strokeColor=#FFFFFF;strokeWidth=1;edgeStyle=orthogonalEdgeStyle;endFill=1;entryX=0.5;entryY=0;entryDx=0;entryDy=0;" edge="1" parent="WjEBFG3TJ9aYHnauA2-8-1" target="WjEBFG3TJ9aYHnauA2-8-32" source="WjEBFG3TJ9aYHnauA2-8-31">
          <mxGeometry width="50" height="50" relative="1" as="geometry">
            <mxPoint x="370" y="160" as="sourcePoint"/>
            <mxPoint x="190" y="210" as="targetPoint"/>
            <Array as="points"/>
          </mxGeometry>
        </mxCell>
        <mxCell id="WjEBFG3TJ9aYHnauA2-8-35" value="&lt;span style=&quot;background-color: rgb(0 , 0 , 0)&quot;&gt;clone&lt;/span&gt;" style="text;html=1;align=center;verticalAlign=middle;resizable=0;points=[];labelBackgroundColor=#ffffff;fontColor=#FFFFFF;" vertex="1" connectable="0" parent="WjEBFG3TJ9aYHnauA2-8-5">
          <mxGeometry x="-0.1" relative="1" as="geometry">
            <mxPoint y="51.67" as="offset"/>
          </mxGeometry>
        </mxCell>
        <mxCell id="WjEBFG3TJ9aYHnauA2-8-31" value="&lt;font color=&quot;#000000&quot;&gt;remote&lt;br&gt;repo&lt;br&gt;&lt;/font&gt;" style="shape=cylinder;whiteSpace=wrap;html=1;boundedLbl=1;backgroundOutline=1;fillColor=#FFFFFF;fontColor=#FFFFFF;align=center;" vertex="1" parent="WjEBFG3TJ9aYHnauA2-8-1">
          <mxGeometry x="210" y="40" width="50" height="80" as="geometry"/>
        </mxCell>
        <mxCell id="WjEBFG3TJ9aYHnauA2-8-32" value="&lt;font color=&quot;#000000&quot;&gt;local&lt;br&gt;repo&lt;br&gt;&lt;/font&gt;" style="shape=cylinder;whiteSpace=wrap;html=1;boundedLbl=1;backgroundOutline=1;fillColor=#FFFFFF;fontColor=#FFFFFF;align=center;dashed=1;" vertex="1" parent="WjEBFG3TJ9aYHnauA2-8-1">
          <mxGeometry x="120" y="200" width="50" height="80" as="geometry"/>
        </mxCell>
        <mxCell id="WjEBFG3TJ9aYHnauA2-8-36" value="" style="endArrow=blockThin;html=1;strokeColor=#FFFFFF;strokeWidth=1;edgeStyle=orthogonalEdgeStyle;endFill=1;entryX=0.5;entryY=0;entryDx=0;entryDy=0;" edge="1" parent="WjEBFG3TJ9aYHnauA2-8-1" target="WjEBFG3TJ9aYHnauA2-8-38" source="WjEBFG3TJ9aYHnauA2-8-31">
          <mxGeometry width="50" height="50" relative="1" as="geometry">
            <mxPoint x="235" y="110" as="sourcePoint"/>
            <mxPoint x="280" y="210" as="targetPoint"/>
            <Array as="points"/>
          </mxGeometry>
        </mxCell>
        <mxCell id="WjEBFG3TJ9aYHnauA2-8-37" value="&lt;span style=&quot;background-color: rgb(0 , 0 , 0)&quot;&gt;clone&lt;/span&gt;" style="text;html=1;align=center;verticalAlign=middle;resizable=0;points=[];labelBackgroundColor=#ffffff;fontColor=#FFFFFF;" vertex="1" connectable="0" parent="WjEBFG3TJ9aYHnauA2-8-36">
          <mxGeometry x="-0.1" relative="1" as="geometry">
            <mxPoint y="-5.83" as="offset"/>
          </mxGeometry>
        </mxCell>
        <mxCell id="WjEBFG3TJ9aYHnauA2-8-38" value="&lt;font color=&quot;#000000&quot;&gt;local&lt;br&gt;repo&lt;br&gt;&lt;/font&gt;" style="shape=cylinder;whiteSpace=wrap;html=1;boundedLbl=1;backgroundOutline=1;fillColor=#FFFFFF;fontColor=#FFFFFF;align=center;dashed=1;" vertex="1" parent="WjEBFG3TJ9aYHnauA2-8-1">
          <mxGeometry x="210" y="200" width="50" height="80" as="geometry"/>
        </mxCell>
        <mxCell id="WjEBFG3TJ9aYHnauA2-8-39" value="" style="endArrow=blockThin;html=1;strokeColor=#FFFFFF;strokeWidth=1;edgeStyle=orthogonalEdgeStyle;endFill=1;entryX=0.5;entryY=0;entryDx=0;entryDy=0;" edge="1" parent="WjEBFG3TJ9aYHnauA2-8-1" target="WjEBFG3TJ9aYHnauA2-8-41" source="WjEBFG3TJ9aYHnauA2-8-31">
          <mxGeometry width="50" height="50" relative="1" as="geometry">
            <mxPoint x="380" y="80" as="sourcePoint"/>
            <mxPoint x="360" y="210" as="targetPoint"/>
            <Array as="points"/>
          </mxGeometry>
        </mxCell>
        <mxCell id="WjEBFG3TJ9aYHnauA2-8-40" value="&lt;span style=&quot;background-color: rgb(0 , 0 , 0)&quot;&gt;clone&lt;/span&gt;" style="text;html=1;align=center;verticalAlign=middle;resizable=0;points=[];labelBackgroundColor=#ffffff;fontColor=#FFFFFF;" vertex="1" connectable="0" parent="WjEBFG3TJ9aYHnauA2-8-39">
          <mxGeometry x="-0.1" relative="1" as="geometry">
            <mxPoint y="45.83" as="offset"/>
          </mxGeometry>
        </mxCell>
        <mxCell id="WjEBFG3TJ9aYHnauA2-8-41" value="&lt;font color=&quot;#000000&quot;&gt;local&lt;br&gt;repo&lt;br&gt;&lt;/font&gt;" style="shape=cylinder;whiteSpace=wrap;html=1;boundedLbl=1;backgroundOutline=1;fillColor=#FFFFFF;fontColor=#FFFFFF;align=center;dashed=1;" vertex="1" parent="WjEBFG3TJ9aYHnauA2-8-1">
          <mxGeometry x="290" y="200" width="50" height="80" as="geometry"/>
        </mxCell>
        <mxCell id="WjEBFG3TJ9aYHnauA2-8-42" value="developer&lt;br&gt;1" style="text;html=1;fontColor=#FFFFFF;align=center;" vertex="1" parent="WjEBFG3TJ9aYHnauA2-8-1">
          <mxGeometry x="120" y="280" width="50" height="30" as="geometry"/>
        </mxCell>
        <mxCell id="WjEBFG3TJ9aYHnauA2-8-43" value="developer&lt;br&gt;2" style="text;html=1;fontColor=#FFFFFF;align=center;" vertex="1" parent="WjEBFG3TJ9aYHnauA2-8-1">
          <mxGeometry x="210" y="280" width="50" height="30" as="geometry"/>
        </mxCell>
        <mxCell id="WjEBFG3TJ9aYHnauA2-8-44" value="developer&lt;br&gt;3" style="text;html=1;fontColor=#FFFFFF;align=center;" vertex="1" parent="WjEBFG3TJ9aYHnauA2-8-1">
          <mxGeometry x="290" y="280" width="50" height="30" as="geometry"/>
        </mxCell>
        <mxCell id="WjEBFG3TJ9aYHnauA2-8-45" value="&lt;font style=&quot;font-size: 46px&quot;&gt;...&lt;/font&gt;" style="text;html=1;fontColor=#FFFFFF;align=center;" vertex="1" parent="WjEBFG3TJ9aYHnauA2-8-1">
          <mxGeometry x="360" y="250" width="50" height="30" as="geometry"/>
        </mxCell>
      </root>
    </mxGraphModel>
  </diagram>
  <diagram name="fork" id="s3NHlz6cdmavihQ6qMou">
    <mxGraphModel dx="876" dy="627" grid="1" gridSize="10" guides="1" tooltips="1" connect="1" arrows="1" fold="1" page="1" pageScale="1" pageWidth="850" pageHeight="1100" background="#000000" math="0" shadow="0">
      <root>
        <mxCell id="MnjTcf-Sez_MlVGEsCWO-0"/>
        <mxCell id="MnjTcf-Sez_MlVGEsCWO-1" parent="MnjTcf-Sez_MlVGEsCWO-0"/>
        <mxCell id="MnjTcf-Sez_MlVGEsCWO-2" value="" style="endArrow=none;html=1;strokeColor=#FFFFFF;strokeWidth=1;edgeStyle=orthogonalEdgeStyle;endFill=0;entryX=0.5;entryY=0;entryDx=0;entryDy=0;exitX=0.5;exitY=1;exitDx=0;exitDy=0;" edge="1" parent="MnjTcf-Sez_MlVGEsCWO-1" source="MnjTcf-Sez_MlVGEsCWO-4" target="MnjTcf-Sez_MlVGEsCWO-5">
          <mxGeometry width="50" height="50" relative="1" as="geometry">
            <mxPoint x="370" y="160" as="sourcePoint"/>
            <mxPoint x="190" y="210" as="targetPoint"/>
            <Array as="points"/>
          </mxGeometry>
        </mxCell>
        <mxCell id="MnjTcf-Sez_MlVGEsCWO-4" value="&lt;font color=&quot;#000000&quot;&gt;remote&lt;br&gt;repo&lt;br&gt;1&lt;br&gt;&lt;/font&gt;" style="shape=cylinder;whiteSpace=wrap;html=1;boundedLbl=1;backgroundOutline=1;fillColor=#FFFFFF;fontColor=#FFFFFF;align=center;" vertex="1" parent="MnjTcf-Sez_MlVGEsCWO-1">
          <mxGeometry x="120" y="40" width="50" height="80" as="geometry"/>
        </mxCell>
        <mxCell id="MnjTcf-Sez_MlVGEsCWO-5" value="&lt;font color=&quot;#000000&quot;&gt;local&lt;br&gt;repo&lt;br&gt;&lt;/font&gt;" style="shape=cylinder;whiteSpace=wrap;html=1;boundedLbl=1;backgroundOutline=1;fillColor=#FFFFFF;fontColor=#FFFFFF;align=center;" vertex="1" parent="MnjTcf-Sez_MlVGEsCWO-1">
          <mxGeometry x="120" y="200" width="50" height="80" as="geometry"/>
        </mxCell>
        <mxCell id="MnjTcf-Sez_MlVGEsCWO-9" value="" style="endArrow=blockThin;html=1;strokeColor=#FFFFFF;strokeWidth=1;edgeStyle=orthogonalEdgeStyle;endFill=1;entryX=0.5;entryY=0;entryDx=0;entryDy=0;exitX=0.5;exitY=1;exitDx=0;exitDy=0;" edge="1" parent="MnjTcf-Sez_MlVGEsCWO-1" source="MnjTcf-Sez_MlVGEsCWO-16" target="MnjTcf-Sez_MlVGEsCWO-11">
          <mxGeometry width="50" height="50" relative="1" as="geometry">
            <mxPoint x="380" y="80" as="sourcePoint"/>
            <mxPoint x="360" y="210" as="targetPoint"/>
            <Array as="points"/>
          </mxGeometry>
        </mxCell>
        <mxCell id="MnjTcf-Sez_MlVGEsCWO-21" value="&lt;font style=&quot;background-color: rgb(0 , 0 , 0)&quot; color=&quot;#e6e6e6&quot;&gt;clone&lt;/font&gt;" style="text;html=1;align=center;verticalAlign=middle;resizable=0;points=[];labelBackgroundColor=#ffffff;fontColor=#FFFFFF;" vertex="1" connectable="0" parent="MnjTcf-Sez_MlVGEsCWO-9">
          <mxGeometry x="0.075" y="1" relative="1" as="geometry">
            <mxPoint as="offset"/>
          </mxGeometry>
        </mxCell>
        <mxCell id="MnjTcf-Sez_MlVGEsCWO-11" value="&lt;font color=&quot;#000000&quot;&gt;local&lt;br&gt;repo&lt;br&gt;&lt;/font&gt;" style="shape=cylinder;whiteSpace=wrap;html=1;boundedLbl=1;backgroundOutline=1;fillColor=#FFFFFF;fontColor=#FFFFFF;align=center;dashed=1;" vertex="1" parent="MnjTcf-Sez_MlVGEsCWO-1">
          <mxGeometry x="290" y="200" width="50" height="80" as="geometry"/>
        </mxCell>
        <mxCell id="MnjTcf-Sez_MlVGEsCWO-12" value="developer&lt;br&gt;1" style="text;html=1;fontColor=#FFFFFF;align=center;" vertex="1" parent="MnjTcf-Sez_MlVGEsCWO-1">
          <mxGeometry x="120" y="280" width="50" height="30" as="geometry"/>
        </mxCell>
        <mxCell id="MnjTcf-Sez_MlVGEsCWO-14" value="developer&lt;br&gt;2" style="text;html=1;fontColor=#FFFFFF;align=center;" vertex="1" parent="MnjTcf-Sez_MlVGEsCWO-1">
          <mxGeometry x="290" y="280" width="50" height="30" as="geometry"/>
        </mxCell>
        <mxCell id="MnjTcf-Sez_MlVGEsCWO-15" value="&lt;font style=&quot;font-size: 46px&quot;&gt;...&lt;/font&gt;" style="text;html=1;fontColor=#FFFFFF;align=center;" vertex="1" parent="MnjTcf-Sez_MlVGEsCWO-1">
          <mxGeometry x="360" y="250" width="50" height="30" as="geometry"/>
        </mxCell>
        <mxCell id="MnjTcf-Sez_MlVGEsCWO-16" value="&lt;font color=&quot;#000000&quot;&gt;remote&lt;br&gt;repo&lt;br&gt;2&lt;br&gt;&lt;/font&gt;" style="shape=cylinder;whiteSpace=wrap;html=1;boundedLbl=1;backgroundOutline=1;fillColor=#FFFFFF;fontColor=#FFFFFF;align=center;dashed=1;" vertex="1" parent="MnjTcf-Sez_MlVGEsCWO-1">
          <mxGeometry x="290" y="40" width="50" height="80" as="geometry"/>
        </mxCell>
        <mxCell id="MnjTcf-Sez_MlVGEsCWO-17" value="" style="endArrow=none;html=1;strokeColor=#FFFFFF;strokeWidth=1;edgeStyle=orthogonalEdgeStyle;endFill=0;startArrow=blockThin;startFill=1;" edge="1" parent="MnjTcf-Sez_MlVGEsCWO-1" source="MnjTcf-Sez_MlVGEsCWO-16">
          <mxGeometry width="50" height="50" relative="1" as="geometry">
            <mxPoint x="155" y="130" as="sourcePoint"/>
            <mxPoint x="170" y="80" as="targetPoint"/>
            <Array as="points"/>
          </mxGeometry>
        </mxCell>
        <mxCell id="MnjTcf-Sez_MlVGEsCWO-18" value="&lt;font color=&quot;#e6e6e6&quot; style=&quot;background-color: rgb(0 , 0 , 0)&quot;&gt;clone&lt;/font&gt;" style="text;html=1;align=center;verticalAlign=middle;resizable=0;points=[];labelBackgroundColor=#ffffff;fontColor=#FFFFFF;" vertex="1" connectable="0" parent="MnjTcf-Sez_MlVGEsCWO-17">
          <mxGeometry x="0.1333" y="1" relative="1" as="geometry">
            <mxPoint as="offset"/>
          </mxGeometry>
        </mxCell>
        <mxCell id="MnjTcf-Sez_MlVGEsCWO-26" value="&lt;font style=&quot;font-size: 46px&quot;&gt;...&lt;/font&gt;" style="text;html=1;fontColor=#FFFFFF;align=center;" vertex="1" parent="MnjTcf-Sez_MlVGEsCWO-1">
          <mxGeometry x="180" y="250" width="50" height="30" as="geometry"/>
        </mxCell>
      </root>
    </mxGraphModel>
  </diagram>
  <diagram name="pull" id="Mtn5To6-pXG-jZUgiCHZ">
    <mxGraphModel dx="876" dy="561" grid="1" gridSize="10" guides="1" tooltips="1" connect="1" arrows="1" fold="1" page="1" pageScale="1" pageWidth="850" pageHeight="1100" background="#000000" math="0" shadow="0">
      <root>
        <mxCell id="0K3uKWVR0uljiZb6KkqW-0"/>
        <mxCell id="0K3uKWVR0uljiZb6KkqW-1" parent="0K3uKWVR0uljiZb6KkqW-0"/>
        <mxCell id="0K3uKWVR0uljiZb6KkqW-2" value="" style="endArrow=blockThin;html=1;strokeColor=#FFFFFF;strokeWidth=1;edgeStyle=orthogonalEdgeStyle;endFill=1;entryX=0.5;entryY=0;entryDx=0;entryDy=0;" edge="1" parent="0K3uKWVR0uljiZb6KkqW-1" source="0K3uKWVR0uljiZb6KkqW-4" target="0K3uKWVR0uljiZb6KkqW-5">
          <mxGeometry width="50" height="50" relative="1" as="geometry">
            <mxPoint x="370" y="160" as="sourcePoint"/>
            <mxPoint x="190" y="210" as="targetPoint"/>
            <Array as="points"/>
          </mxGeometry>
        </mxCell>
        <mxCell id="0K3uKWVR0uljiZb6KkqW-3" value="&lt;span style=&quot;background-color: rgb(0 , 0 , 0)&quot;&gt;pull&lt;/span&gt;" style="text;html=1;align=center;verticalAlign=middle;resizable=0;points=[];labelBackgroundColor=#ffffff;fontColor=#FFFFFF;" vertex="1" connectable="0" parent="0K3uKWVR0uljiZb6KkqW-2">
          <mxGeometry x="-0.1" relative="1" as="geometry">
            <mxPoint y="51.67" as="offset"/>
          </mxGeometry>
        </mxCell>
        <mxCell id="0K3uKWVR0uljiZb6KkqW-4" value="&lt;font color=&quot;#000000&quot;&gt;remote&lt;br&gt;repo&lt;br&gt;&lt;/font&gt;" style="shape=cylinder;whiteSpace=wrap;html=1;boundedLbl=1;backgroundOutline=1;fillColor=#FFFFFF;fontColor=#FFFFFF;align=center;" vertex="1" parent="0K3uKWVR0uljiZb6KkqW-1">
          <mxGeometry x="210" y="40" width="50" height="80" as="geometry"/>
        </mxCell>
        <mxCell id="0K3uKWVR0uljiZb6KkqW-5" value="&lt;font color=&quot;#000000&quot;&gt;local&lt;br&gt;repo&lt;br&gt;&lt;/font&gt;" style="shape=cylinder;whiteSpace=wrap;html=1;boundedLbl=1;backgroundOutline=1;fillColor=#FFFFFF;fontColor=#FFFFFF;align=center;" vertex="1" parent="0K3uKWVR0uljiZb6KkqW-1">
          <mxGeometry x="120" y="200" width="50" height="80" as="geometry"/>
        </mxCell>
        <mxCell id="0K3uKWVR0uljiZb6KkqW-6" value="" style="endArrow=none;html=1;strokeColor=#FFFFFF;strokeWidth=1;edgeStyle=orthogonalEdgeStyle;endFill=0;entryX=0.5;entryY=0;entryDx=0;entryDy=0;" edge="1" parent="0K3uKWVR0uljiZb6KkqW-1" source="0K3uKWVR0uljiZb6KkqW-4" target="0K3uKWVR0uljiZb6KkqW-8">
          <mxGeometry width="50" height="50" relative="1" as="geometry">
            <mxPoint x="235" y="110" as="sourcePoint"/>
            <mxPoint x="280" y="210" as="targetPoint"/>
            <Array as="points"/>
          </mxGeometry>
        </mxCell>
        <mxCell id="0K3uKWVR0uljiZb6KkqW-8" value="&lt;font color=&quot;#000000&quot;&gt;local&lt;br&gt;repo&lt;br&gt;&lt;/font&gt;" style="shape=cylinder;whiteSpace=wrap;html=1;boundedLbl=1;backgroundOutline=1;fillColor=#FFFFFF;fontColor=#FFFFFF;align=center;" vertex="1" parent="0K3uKWVR0uljiZb6KkqW-1">
          <mxGeometry x="210" y="200" width="50" height="80" as="geometry"/>
        </mxCell>
        <mxCell id="0K3uKWVR0uljiZb6KkqW-9" value="" style="endArrow=none;html=1;strokeColor=#FFFFFF;strokeWidth=1;edgeStyle=orthogonalEdgeStyle;endFill=0;entryX=0.5;entryY=0;entryDx=0;entryDy=0;" edge="1" parent="0K3uKWVR0uljiZb6KkqW-1" source="0K3uKWVR0uljiZb6KkqW-4" target="0K3uKWVR0uljiZb6KkqW-11">
          <mxGeometry width="50" height="50" relative="1" as="geometry">
            <mxPoint x="380" y="80" as="sourcePoint"/>
            <mxPoint x="360" y="210" as="targetPoint"/>
            <Array as="points"/>
          </mxGeometry>
        </mxCell>
        <mxCell id="0K3uKWVR0uljiZb6KkqW-11" value="&lt;font color=&quot;#000000&quot;&gt;local&lt;br&gt;repo&lt;br&gt;&lt;/font&gt;" style="shape=cylinder;whiteSpace=wrap;html=1;boundedLbl=1;backgroundOutline=1;fillColor=#FFFFFF;fontColor=#FFFFFF;align=center;" vertex="1" parent="0K3uKWVR0uljiZb6KkqW-1">
          <mxGeometry x="290" y="200" width="50" height="80" as="geometry"/>
        </mxCell>
        <mxCell id="0K3uKWVR0uljiZb6KkqW-12" value="developer&lt;br&gt;1" style="text;html=1;fontColor=#FFFFFF;align=center;" vertex="1" parent="0K3uKWVR0uljiZb6KkqW-1">
          <mxGeometry x="120" y="280" width="50" height="30" as="geometry"/>
        </mxCell>
        <mxCell id="0K3uKWVR0uljiZb6KkqW-13" value="developer&lt;br&gt;2" style="text;html=1;fontColor=#FFFFFF;align=center;" vertex="1" parent="0K3uKWVR0uljiZb6KkqW-1">
          <mxGeometry x="210" y="280" width="50" height="30" as="geometry"/>
        </mxCell>
        <mxCell id="0K3uKWVR0uljiZb6KkqW-14" value="developer&lt;br&gt;3" style="text;html=1;fontColor=#FFFFFF;align=center;" vertex="1" parent="0K3uKWVR0uljiZb6KkqW-1">
          <mxGeometry x="290" y="280" width="50" height="30" as="geometry"/>
        </mxCell>
        <mxCell id="0K3uKWVR0uljiZb6KkqW-15" value="&lt;font style=&quot;font-size: 46px&quot;&gt;...&lt;/font&gt;" style="text;html=1;fontColor=#FFFFFF;align=center;" vertex="1" parent="0K3uKWVR0uljiZb6KkqW-1">
          <mxGeometry x="360" y="250" width="50" height="30" as="geometry"/>
        </mxCell>
      </root>
    </mxGraphModel>
  </diagram>
  <diagram name="push" id="f5FcZz84x9hoA2uoDCBh">
    <mxGraphModel dx="876" dy="627" grid="1" gridSize="10" guides="1" tooltips="1" connect="1" arrows="1" fold="1" page="1" pageScale="1" pageWidth="850" pageHeight="1100" background="#000000" math="0" shadow="0">
      <root>
        <mxCell id="WmYjxT8LQKnxayUk5NDk-0"/>
        <mxCell id="WmYjxT8LQKnxayUk5NDk-1" parent="WmYjxT8LQKnxayUk5NDk-0"/>
        <mxCell id="WmYjxT8LQKnxayUk5NDk-2" value="" style="endArrow=none;html=1;strokeColor=#FFFFFF;strokeWidth=1;edgeStyle=orthogonalEdgeStyle;endFill=0;entryX=0.5;entryY=0;entryDx=0;entryDy=0;startArrow=blockThin;startFill=1;" edge="1" parent="WmYjxT8LQKnxayUk5NDk-1" source="WmYjxT8LQKnxayUk5NDk-4" target="WmYjxT8LQKnxayUk5NDk-5">
          <mxGeometry width="50" height="50" relative="1" as="geometry">
            <mxPoint x="370" y="160" as="sourcePoint"/>
            <mxPoint x="190" y="210" as="targetPoint"/>
            <Array as="points"/>
          </mxGeometry>
        </mxCell>
        <mxCell id="WmYjxT8LQKnxayUk5NDk-3" value="&lt;span style=&quot;background-color: rgb(0 , 0 , 0)&quot;&gt;push&lt;/span&gt;" style="text;html=1;align=center;verticalAlign=middle;resizable=0;points=[];labelBackgroundColor=#ffffff;fontColor=#FFFFFF;" vertex="1" connectable="0" parent="WmYjxT8LQKnxayUk5NDk-2">
          <mxGeometry x="-0.1" relative="1" as="geometry">
            <mxPoint y="51.67" as="offset"/>
          </mxGeometry>
        </mxCell>
        <mxCell id="WmYjxT8LQKnxayUk5NDk-4" value="&lt;font color=&quot;#000000&quot;&gt;remote&lt;br&gt;repo&lt;br&gt;&lt;/font&gt;" style="shape=cylinder;whiteSpace=wrap;html=1;boundedLbl=1;backgroundOutline=1;fillColor=#FFFFFF;fontColor=#FFFFFF;align=center;" vertex="1" parent="WmYjxT8LQKnxayUk5NDk-1">
          <mxGeometry x="210" y="40" width="50" height="80" as="geometry"/>
        </mxCell>
        <mxCell id="WmYjxT8LQKnxayUk5NDk-5" value="&lt;font color=&quot;#000000&quot;&gt;local&lt;br&gt;repo&lt;br&gt;&lt;/font&gt;" style="shape=cylinder;whiteSpace=wrap;html=1;boundedLbl=1;backgroundOutline=1;fillColor=#FFFFFF;fontColor=#FFFFFF;align=center;" vertex="1" parent="WmYjxT8LQKnxayUk5NDk-1">
          <mxGeometry x="120" y="200" width="50" height="80" as="geometry"/>
        </mxCell>
        <mxCell id="WmYjxT8LQKnxayUk5NDk-6" value="" style="endArrow=none;html=1;strokeColor=#FFFFFF;strokeWidth=1;edgeStyle=orthogonalEdgeStyle;endFill=0;entryX=0.5;entryY=0;entryDx=0;entryDy=0;" edge="1" parent="WmYjxT8LQKnxayUk5NDk-1" source="WmYjxT8LQKnxayUk5NDk-4" target="WmYjxT8LQKnxayUk5NDk-7">
          <mxGeometry width="50" height="50" relative="1" as="geometry">
            <mxPoint x="235" y="110" as="sourcePoint"/>
            <mxPoint x="280" y="210" as="targetPoint"/>
            <Array as="points"/>
          </mxGeometry>
        </mxCell>
        <mxCell id="WmYjxT8LQKnxayUk5NDk-7" value="&lt;font color=&quot;#000000&quot;&gt;local&lt;br&gt;repo&lt;br&gt;&lt;/font&gt;" style="shape=cylinder;whiteSpace=wrap;html=1;boundedLbl=1;backgroundOutline=1;fillColor=#FFFFFF;fontColor=#FFFFFF;align=center;" vertex="1" parent="WmYjxT8LQKnxayUk5NDk-1">
          <mxGeometry x="210" y="200" width="50" height="80" as="geometry"/>
        </mxCell>
        <mxCell id="WmYjxT8LQKnxayUk5NDk-8" value="" style="endArrow=none;html=1;strokeColor=#FFFFFF;strokeWidth=1;edgeStyle=orthogonalEdgeStyle;endFill=0;entryX=0.5;entryY=0;entryDx=0;entryDy=0;" edge="1" parent="WmYjxT8LQKnxayUk5NDk-1" source="WmYjxT8LQKnxayUk5NDk-4" target="WmYjxT8LQKnxayUk5NDk-9">
          <mxGeometry width="50" height="50" relative="1" as="geometry">
            <mxPoint x="380" y="80" as="sourcePoint"/>
            <mxPoint x="360" y="210" as="targetPoint"/>
            <Array as="points"/>
          </mxGeometry>
        </mxCell>
        <mxCell id="WmYjxT8LQKnxayUk5NDk-9" value="&lt;font color=&quot;#000000&quot;&gt;local&lt;br&gt;repo&lt;br&gt;&lt;/font&gt;" style="shape=cylinder;whiteSpace=wrap;html=1;boundedLbl=1;backgroundOutline=1;fillColor=#FFFFFF;fontColor=#FFFFFF;align=center;" vertex="1" parent="WmYjxT8LQKnxayUk5NDk-1">
          <mxGeometry x="290" y="200" width="50" height="80" as="geometry"/>
        </mxCell>
        <mxCell id="WmYjxT8LQKnxayUk5NDk-10" value="developer&lt;br&gt;1" style="text;html=1;fontColor=#FFFFFF;align=center;" vertex="1" parent="WmYjxT8LQKnxayUk5NDk-1">
          <mxGeometry x="120" y="280" width="50" height="30" as="geometry"/>
        </mxCell>
        <mxCell id="WmYjxT8LQKnxayUk5NDk-11" value="developer&lt;br&gt;2" style="text;html=1;fontColor=#FFFFFF;align=center;" vertex="1" parent="WmYjxT8LQKnxayUk5NDk-1">
          <mxGeometry x="210" y="280" width="50" height="30" as="geometry"/>
        </mxCell>
        <mxCell id="WmYjxT8LQKnxayUk5NDk-12" value="developer&lt;br&gt;3" style="text;html=1;fontColor=#FFFFFF;align=center;" vertex="1" parent="WmYjxT8LQKnxayUk5NDk-1">
          <mxGeometry x="290" y="280" width="50" height="30" as="geometry"/>
        </mxCell>
        <mxCell id="WmYjxT8LQKnxayUk5NDk-13" value="&lt;font style=&quot;font-size: 46px&quot;&gt;...&lt;/font&gt;" style="text;html=1;fontColor=#FFFFFF;align=center;" vertex="1" parent="WmYjxT8LQKnxayUk5NDk-1">
          <mxGeometry x="360" y="250" width="50" height="30" as="geometry"/>
        </mxCell>
      </root>
    </mxGraphModel>
  </diagram>
</mxfile>
